<mxfile host="app.diagrams.net" modified="2022-07-12T02:49:40.551Z" agent="5.0 (Windows NT 10.0; Win64; x64) AppleWebKit/537.36 (KHTML, like Gecko) Chrome/103.0.0.0 Safari/537.36" etag="mnDxne3mdL-TQSeIGaP4" version="20.0.4" type="github">
  <diagram id="C5RBs43oDa-KdzZeNtuy" name="Page-1">
    <mxGraphModel dx="976" dy="587" grid="1" gridSize="10" guides="1" tooltips="1" connect="1" arrows="1" fold="1" page="1" pageScale="1" pageWidth="827" pageHeight="1169" math="0" shadow="0">
      <root>
        <mxCell id="WIyWlLk6GJQsqaUBKTNV-0" />
        <mxCell id="WIyWlLk6GJQsqaUBKTNV-1" parent="WIyWlLk6GJQsqaUBKTNV-0" />
        <mxCell id="TfTARqASa1PiYTCv1m8Y-1" value="begin" style="ellipse;whiteSpace=wrap;html=1;" vertex="1" parent="WIyWlLk6GJQsqaUBKTNV-1">
          <mxGeometry x="260" y="30" width="60" height="40" as="geometry" />
        </mxCell>
        <mxCell id="TfTARqASa1PiYTCv1m8Y-23" value="" style="edgeStyle=orthogonalEdgeStyle;rounded=0;orthogonalLoop=1;jettySize=auto;html=1;" edge="1" parent="WIyWlLk6GJQsqaUBKTNV-1" target="TfTARqASa1PiYTCv1m8Y-6">
          <mxGeometry relative="1" as="geometry">
            <mxPoint x="290" y="180" as="sourcePoint" />
          </mxGeometry>
        </mxCell>
        <mxCell id="TfTARqASa1PiYTCv1m8Y-2" value="argc &amp;gt; 7" style="rhombus;whiteSpace=wrap;html=1;" vertex="1" parent="WIyWlLk6GJQsqaUBKTNV-1">
          <mxGeometry x="250" y="90" width="80" height="40" as="geometry" />
        </mxCell>
        <mxCell id="TfTARqASa1PiYTCv1m8Y-41" value="" style="edgeStyle=orthogonalEdgeStyle;rounded=0;orthogonalLoop=1;jettySize=auto;html=1;exitX=0.75;exitY=1;exitDx=0;exitDy=0;" edge="1" parent="WIyWlLk6GJQsqaUBKTNV-1" source="TfTARqASa1PiYTCv1m8Y-3" target="TfTARqASa1PiYTCv1m8Y-40">
          <mxGeometry relative="1" as="geometry" />
        </mxCell>
        <mxCell id="TfTARqASa1PiYTCv1m8Y-3" value="&lt;span style=&quot;background-color: initial;&quot;&gt;output_error&lt;/span&gt;" style="rounded=1;whiteSpace=wrap;html=1;" vertex="1" parent="WIyWlLk6GJQsqaUBKTNV-1">
          <mxGeometry x="530" y="95" width="230" height="30" as="geometry" />
        </mxCell>
        <mxCell id="TfTARqASa1PiYTCv1m8Y-5" value="&lt;span style=&quot;background-color: initial;&quot;&gt;bool has_num_sensors_set = false&lt;/span&gt;" style="rounded=1;whiteSpace=wrap;html=1;" vertex="1" parent="WIyWlLk6GJQsqaUBKTNV-1">
          <mxGeometry x="180" y="150" width="220" height="30" as="geometry" />
        </mxCell>
        <mxCell id="TfTARqASa1PiYTCv1m8Y-6" value="bool has_sampling_set = false" style="rounded=1;whiteSpace=wrap;html=1;" vertex="1" parent="WIyWlLk6GJQsqaUBKTNV-1">
          <mxGeometry x="170" y="200" width="240" height="30" as="geometry" />
        </mxCell>
        <mxCell id="TfTARqASa1PiYTCv1m8Y-7" value="&lt;div&gt;bool has_interval_set = false&lt;/div&gt;" style="rounded=1;whiteSpace=wrap;html=1;" vertex="1" parent="WIyWlLk6GJQsqaUBKTNV-1">
          <mxGeometry x="200" y="251" width="180" height="30" as="geometry" />
        </mxCell>
        <mxCell id="TfTARqASa1PiYTCv1m8Y-8" value="&lt;span style=&quot;background-color: initial;&quot;&gt;bool result = true&lt;br&gt;&lt;/span&gt;" style="rounded=1;whiteSpace=wrap;html=1;" vertex="1" parent="WIyWlLk6GJQsqaUBKTNV-1">
          <mxGeometry x="230" y="300" width="120" height="30" as="geometry" />
        </mxCell>
        <mxCell id="TfTARqASa1PiYTCv1m8Y-31" value="" style="edgeStyle=orthogonalEdgeStyle;rounded=0;orthogonalLoop=1;jettySize=auto;html=1;" edge="1" parent="WIyWlLk6GJQsqaUBKTNV-1" source="TfTARqASa1PiYTCv1m8Y-9" target="TfTARqASa1PiYTCv1m8Y-10">
          <mxGeometry relative="1" as="geometry" />
        </mxCell>
        <mxCell id="TfTARqASa1PiYTCv1m8Y-9" value="&lt;div style=&quot;line-height: 19px;&quot;&gt;int i = 1&lt;/div&gt;" style="rounded=1;whiteSpace=wrap;html=1;" vertex="1" parent="WIyWlLk6GJQsqaUBKTNV-1">
          <mxGeometry x="245" y="350" width="90" height="30" as="geometry" />
        </mxCell>
        <mxCell id="TfTARqASa1PiYTCv1m8Y-32" value="yes" style="edgeStyle=orthogonalEdgeStyle;rounded=0;orthogonalLoop=1;jettySize=auto;html=1;" edge="1" parent="WIyWlLk6GJQsqaUBKTNV-1" source="TfTARqASa1PiYTCv1m8Y-10" target="TfTARqASa1PiYTCv1m8Y-13">
          <mxGeometry x="0.1285" relative="1" as="geometry">
            <mxPoint as="offset" />
          </mxGeometry>
        </mxCell>
        <mxCell id="TfTARqASa1PiYTCv1m8Y-42" value="no" style="edgeStyle=orthogonalEdgeStyle;rounded=0;orthogonalLoop=1;jettySize=auto;html=1;" edge="1" parent="WIyWlLk6GJQsqaUBKTNV-1" source="TfTARqASa1PiYTCv1m8Y-10" target="TfTARqASa1PiYTCv1m8Y-17">
          <mxGeometry x="-0.25" relative="1" as="geometry">
            <mxPoint as="offset" />
          </mxGeometry>
        </mxCell>
        <mxCell id="TfTARqASa1PiYTCv1m8Y-10" value="&lt;div style=&quot;line-height: 19px;&quot;&gt;i &amp;lt; argc - 1&lt;/div&gt;" style="rhombus;whiteSpace=wrap;html=1;" vertex="1" parent="WIyWlLk6GJQsqaUBKTNV-1">
          <mxGeometry x="245" y="434.5" width="90" height="40" as="geometry" />
        </mxCell>
        <mxCell id="TfTARqASa1PiYTCv1m8Y-39" value="" style="edgeStyle=orthogonalEdgeStyle;rounded=0;orthogonalLoop=1;jettySize=auto;html=1;" edge="1" parent="WIyWlLk6GJQsqaUBKTNV-1" source="TfTARqASa1PiYTCv1m8Y-11" target="TfTARqASa1PiYTCv1m8Y-10">
          <mxGeometry relative="1" as="geometry" />
        </mxCell>
        <mxCell id="TfTARqASa1PiYTCv1m8Y-11" value="&lt;div style=&quot;line-height: 19px;&quot;&gt;i += 2&lt;/div&gt;" style="rounded=1;whiteSpace=wrap;html=1;" vertex="1" parent="WIyWlLk6GJQsqaUBKTNV-1">
          <mxGeometry x="432" y="442" width="75" height="25" as="geometry" />
        </mxCell>
        <mxCell id="TfTARqASa1PiYTCv1m8Y-33" value="no" style="edgeStyle=orthogonalEdgeStyle;rounded=0;orthogonalLoop=1;jettySize=auto;html=1;" edge="1" parent="WIyWlLk6GJQsqaUBKTNV-1" source="TfTARqASa1PiYTCv1m8Y-13" target="TfTARqASa1PiYTCv1m8Y-15">
          <mxGeometry relative="1" as="geometry">
            <Array as="points">
              <mxPoint x="225" y="612" />
            </Array>
          </mxGeometry>
        </mxCell>
        <mxCell id="TfTARqASa1PiYTCv1m8Y-35" value="yes" style="edgeStyle=orthogonalEdgeStyle;rounded=0;orthogonalLoop=1;jettySize=auto;html=1;" edge="1" parent="WIyWlLk6GJQsqaUBKTNV-1" source="TfTARqASa1PiYTCv1m8Y-13" target="TfTARqASa1PiYTCv1m8Y-16">
          <mxGeometry relative="1" as="geometry" />
        </mxCell>
        <mxCell id="TfTARqASa1PiYTCv1m8Y-13" value="&lt;div style=&quot;line-height: 19px;&quot;&gt;&quot;-n&quot; == argv[i]&lt;/div&gt;" style="rhombus;whiteSpace=wrap;html=1;" vertex="1" parent="WIyWlLk6GJQsqaUBKTNV-1">
          <mxGeometry x="170" y="527" width="110" height="50" as="geometry" />
        </mxCell>
        <mxCell id="TfTARqASa1PiYTCv1m8Y-37" value="yes" style="edgeStyle=orthogonalEdgeStyle;rounded=0;orthogonalLoop=1;jettySize=auto;html=1;exitX=1;exitY=0.5;exitDx=0;exitDy=0;" edge="1" parent="WIyWlLk6GJQsqaUBKTNV-1" source="TfTARqASa1PiYTCv1m8Y-14" target="TfTARqASa1PiYTCv1m8Y-16">
          <mxGeometry relative="1" as="geometry">
            <Array as="points">
              <mxPoint x="470" y="677" />
            </Array>
          </mxGeometry>
        </mxCell>
        <mxCell id="TfTARqASa1PiYTCv1m8Y-14" value="&lt;div style=&quot;line-height: 19px;&quot;&gt;&quot;-si&quot; == argv[i]&lt;/div&gt;" style="rhombus;whiteSpace=wrap;html=1;" vertex="1" parent="WIyWlLk6GJQsqaUBKTNV-1">
          <mxGeometry x="330" y="651.5" width="110" height="50" as="geometry" />
        </mxCell>
        <mxCell id="TfTARqASa1PiYTCv1m8Y-34" value="no" style="edgeStyle=orthogonalEdgeStyle;rounded=0;orthogonalLoop=1;jettySize=auto;html=1;" edge="1" parent="WIyWlLk6GJQsqaUBKTNV-1" source="TfTARqASa1PiYTCv1m8Y-15" target="TfTARqASa1PiYTCv1m8Y-14">
          <mxGeometry relative="1" as="geometry">
            <mxPoint x="340" y="677" as="targetPoint" />
            <Array as="points">
              <mxPoint x="304" y="677" />
            </Array>
          </mxGeometry>
        </mxCell>
        <mxCell id="TfTARqASa1PiYTCv1m8Y-36" value="yes" style="edgeStyle=orthogonalEdgeStyle;rounded=0;orthogonalLoop=1;jettySize=auto;html=1;entryX=0.25;entryY=1;entryDx=0;entryDy=0;" edge="1" parent="WIyWlLk6GJQsqaUBKTNV-1" source="TfTARqASa1PiYTCv1m8Y-15" target="TfTARqASa1PiYTCv1m8Y-16">
          <mxGeometry relative="1" as="geometry" />
        </mxCell>
        <mxCell id="TfTARqASa1PiYTCv1m8Y-15" value="&lt;div style=&quot;line-height: 19px;&quot;&gt;&quot;-st&quot; == argv[i]&lt;/div&gt;" style="rhombus;whiteSpace=wrap;html=1;" vertex="1" parent="WIyWlLk6GJQsqaUBKTNV-1">
          <mxGeometry x="249" y="587" width="110" height="50" as="geometry" />
        </mxCell>
        <mxCell id="TfTARqASa1PiYTCv1m8Y-38" value="" style="edgeStyle=orthogonalEdgeStyle;rounded=0;orthogonalLoop=1;jettySize=auto;html=1;entryX=0.5;entryY=1;entryDx=0;entryDy=0;" edge="1" parent="WIyWlLk6GJQsqaUBKTNV-1" source="TfTARqASa1PiYTCv1m8Y-16" target="TfTARqASa1PiYTCv1m8Y-11">
          <mxGeometry relative="1" as="geometry" />
        </mxCell>
        <mxCell id="TfTARqASa1PiYTCv1m8Y-16" value="&lt;div style=&quot;line-height: 19px;&quot;&gt;result &amp;amp;= assign_value&lt;/div&gt;" style="rounded=1;whiteSpace=wrap;html=1;" vertex="1" parent="WIyWlLk6GJQsqaUBKTNV-1">
          <mxGeometry x="390" y="537" width="160" height="30" as="geometry" />
        </mxCell>
        <mxCell id="TfTARqASa1PiYTCv1m8Y-43" value="yes" style="edgeStyle=orthogonalEdgeStyle;rounded=0;orthogonalLoop=1;jettySize=auto;html=1;" edge="1" parent="WIyWlLk6GJQsqaUBKTNV-1">
          <mxGeometry x="-0.3559" y="-1" relative="1" as="geometry">
            <mxPoint x="129" y="429.5" as="sourcePoint" />
            <mxPoint x="129" y="400" as="targetPoint" />
            <mxPoint y="1" as="offset" />
          </mxGeometry>
        </mxCell>
        <mxCell id="TfTARqASa1PiYTCv1m8Y-17" value="&lt;div style=&quot;line-height: 19px;&quot;&gt;interval &amp;lt; sampling&lt;/div&gt;" style="rhombus;whiteSpace=wrap;html=1;" vertex="1" parent="WIyWlLk6GJQsqaUBKTNV-1">
          <mxGeometry x="55" y="429.5" width="150" height="50" as="geometry" />
        </mxCell>
        <mxCell id="TfTARqASa1PiYTCv1m8Y-19" value="&lt;div style=&quot;line-height: 19px;&quot;&gt;return result&lt;/div&gt;" style="ellipse;whiteSpace=wrap;html=1;" vertex="1" parent="WIyWlLk6GJQsqaUBKTNV-1">
          <mxGeometry x="85" y="360" width="90" height="40" as="geometry" />
        </mxCell>
        <mxCell id="TfTARqASa1PiYTCv1m8Y-21" value="" style="endArrow=classic;html=1;rounded=0;" edge="1" parent="WIyWlLk6GJQsqaUBKTNV-1" source="TfTARqASa1PiYTCv1m8Y-1" target="TfTARqASa1PiYTCv1m8Y-2">
          <mxGeometry width="50" height="50" relative="1" as="geometry">
            <mxPoint x="290" y="71" as="sourcePoint" />
            <mxPoint x="290" y="91" as="targetPoint" />
          </mxGeometry>
        </mxCell>
        <mxCell id="TfTARqASa1PiYTCv1m8Y-22" value="" style="endArrow=classic;html=1;rounded=0;entryX=0.5;entryY=0;entryDx=0;entryDy=0;" edge="1" parent="WIyWlLk6GJQsqaUBKTNV-1" source="TfTARqASa1PiYTCv1m8Y-5" target="TfTARqASa1PiYTCv1m8Y-6">
          <mxGeometry width="50" height="50" relative="1" as="geometry">
            <mxPoint x="290" y="180" as="sourcePoint" />
            <mxPoint x="290" y="91" as="targetPoint" />
            <Array as="points" />
          </mxGeometry>
        </mxCell>
        <mxCell id="TfTARqASa1PiYTCv1m8Y-24" value="no" style="endArrow=classic;html=1;rounded=0;" edge="1" parent="WIyWlLk6GJQsqaUBKTNV-1" source="TfTARqASa1PiYTCv1m8Y-2" target="TfTARqASa1PiYTCv1m8Y-5">
          <mxGeometry y="10" width="50" height="50" relative="1" as="geometry">
            <mxPoint x="290" y="129" as="sourcePoint" />
            <mxPoint x="290" y="149" as="targetPoint" />
            <mxPoint as="offset" />
          </mxGeometry>
        </mxCell>
        <mxCell id="TfTARqASa1PiYTCv1m8Y-26" value="" style="endArrow=classic;html=1;rounded=0;exitX=0.5;exitY=1;exitDx=0;exitDy=0;entryX=0.5;entryY=0;entryDx=0;entryDy=0;" edge="1" parent="WIyWlLk6GJQsqaUBKTNV-1" source="TfTARqASa1PiYTCv1m8Y-6" target="TfTARqASa1PiYTCv1m8Y-7">
          <mxGeometry width="50" height="50" relative="1" as="geometry">
            <mxPoint x="390" y="270" as="sourcePoint" />
            <mxPoint x="440" y="220" as="targetPoint" />
          </mxGeometry>
        </mxCell>
        <mxCell id="TfTARqASa1PiYTCv1m8Y-28" value="" style="endArrow=classic;html=1;rounded=0;exitX=0.5;exitY=1;exitDx=0;exitDy=0;entryX=0.5;entryY=0;entryDx=0;entryDy=0;" edge="1" parent="WIyWlLk6GJQsqaUBKTNV-1" source="TfTARqASa1PiYTCv1m8Y-7" target="TfTARqASa1PiYTCv1m8Y-8">
          <mxGeometry width="50" height="50" relative="1" as="geometry">
            <mxPoint x="390" y="270" as="sourcePoint" />
            <mxPoint x="440" y="220" as="targetPoint" />
          </mxGeometry>
        </mxCell>
        <mxCell id="TfTARqASa1PiYTCv1m8Y-30" value="" style="endArrow=classic;html=1;rounded=0;exitX=0.5;exitY=1;exitDx=0;exitDy=0;entryX=0.5;entryY=0;entryDx=0;entryDy=0;" edge="1" parent="WIyWlLk6GJQsqaUBKTNV-1" source="TfTARqASa1PiYTCv1m8Y-8" target="TfTARqASa1PiYTCv1m8Y-9">
          <mxGeometry width="50" height="50" relative="1" as="geometry">
            <mxPoint x="390" y="270" as="sourcePoint" />
            <mxPoint x="440" y="220" as="targetPoint" />
          </mxGeometry>
        </mxCell>
        <mxCell id="TfTARqASa1PiYTCv1m8Y-40" value="return false" style="ellipse;whiteSpace=wrap;html=1;" vertex="1" parent="WIyWlLk6GJQsqaUBKTNV-1">
          <mxGeometry x="658" y="195" width="90" height="40" as="geometry" />
        </mxCell>
        <mxCell id="TfTARqASa1PiYTCv1m8Y-44" value="no" style="endArrow=classic;html=1;rounded=0;exitX=0.5;exitY=1;exitDx=0;exitDy=0;entryX=0.25;entryY=1;entryDx=0;entryDy=0;" edge="1" parent="WIyWlLk6GJQsqaUBKTNV-1" source="TfTARqASa1PiYTCv1m8Y-14" target="TfTARqASa1PiYTCv1m8Y-3">
          <mxGeometry x="-0.8586" y="1" width="50" height="50" relative="1" as="geometry">
            <mxPoint x="390" y="500" as="sourcePoint" />
            <mxPoint x="440" y="450" as="targetPoint" />
            <Array as="points">
              <mxPoint x="588" y="700" />
            </Array>
            <mxPoint as="offset" />
          </mxGeometry>
        </mxCell>
        <mxCell id="TfTARqASa1PiYTCv1m8Y-45" value="yes" style="endArrow=classic;html=1;rounded=0;exitX=1;exitY=0.5;exitDx=0;exitDy=0;" edge="1" parent="WIyWlLk6GJQsqaUBKTNV-1" source="TfTARqASa1PiYTCv1m8Y-2" target="TfTARqASa1PiYTCv1m8Y-3">
          <mxGeometry x="-0.7" width="50" height="50" relative="1" as="geometry">
            <mxPoint x="390" y="300" as="sourcePoint" />
            <mxPoint x="440" y="250" as="targetPoint" />
            <Array as="points">
              <mxPoint x="530" y="110" />
            </Array>
            <mxPoint as="offset" />
          </mxGeometry>
        </mxCell>
        <mxCell id="TfTARqASa1PiYTCv1m8Y-46" value="no" style="endArrow=classic;html=1;rounded=0;entryX=0.5;entryY=1;entryDx=0;entryDy=0;" edge="1" parent="WIyWlLk6GJQsqaUBKTNV-1" target="TfTARqASa1PiYTCv1m8Y-3">
          <mxGeometry x="-0.9704" width="50" height="50" relative="1" as="geometry">
            <mxPoint x="130" y="480" as="sourcePoint" />
            <mxPoint x="440" y="540" as="targetPoint" />
            <Array as="points">
              <mxPoint x="130" y="720" />
              <mxPoint x="645" y="720" />
            </Array>
            <mxPoint as="offset" />
          </mxGeometry>
        </mxCell>
      </root>
    </mxGraphModel>
  </diagram>
</mxfile>
